<svg xmlns="http://www.w3.org/2000/svg" width="655" height="655" viewBox="0 0 655 655">
  <g id="Group_7" data-name="Group 7" transform="translate(5327.001 1569)">
    <g id="Mask" transform="translate(-5327.001 -1569)" style="isolation: isolate">
      <path id="Exclusion_6" data-name="Exclusion 6" d="M-90.5,655a329.921,329.921,0,0,1-66-6.654,325.864,325.864,0,0,1-61.475-19.083,327.538,327.538,0,0,1-55.631-30.2,329.854,329.854,0,0,1-48.469-39.991,329.849,329.849,0,0,1-39.991-48.469,327.531,327.531,0,0,1-30.2-55.631A325.849,325.849,0,0,1-411.347,393.5a329.911,329.911,0,0,1-6.654-66,329.911,329.911,0,0,1,6.654-66,325.849,325.849,0,0,1,19.083-61.475,327.532,327.532,0,0,1,30.2-55.631,329.857,329.857,0,0,1,39.991-48.469,329.859,329.859,0,0,1,48.469-39.991,327.531,327.531,0,0,1,55.631-30.2A325.849,325.849,0,0,1-156.5,6.654,329.912,329.912,0,0,1-90.5,0a329.913,329.913,0,0,1,66,6.654A325.842,325.842,0,0,1,36.978,25.737a327.531,327.531,0,0,1,55.631,30.2,329.854,329.854,0,0,1,48.469,39.991,329.86,329.86,0,0,1,39.991,48.469,327.54,327.54,0,0,1,30.2,55.631A325.857,325.857,0,0,1,230.346,261.5a329.921,329.921,0,0,1,6.654,66,329.921,329.921,0,0,1-6.654,66,325.859,325.859,0,0,1-19.083,61.475,327.536,327.536,0,0,1-30.2,55.631,329.841,329.841,0,0,1-39.991,48.469,329.847,329.847,0,0,1-48.469,39.991,327.53,327.53,0,0,1-55.631,30.2A325.858,325.858,0,0,1-24.5,648.347,329.922,329.922,0,0,1-90.5,655Zm.625-400.714a73.922,73.922,0,0,0-73.839,73.838,73.922,73.922,0,0,0,73.839,73.838,73.921,73.921,0,0,0,73.838-73.838A73.921,73.921,0,0,0-89.876,254.286Z" transform="translate(418 0)" fill="none" opacity="0.5"/>
    </g>
    <g id="Mask-2" data-name="Mask" transform="translate(-5315 -1560)">
      <path id="Exclusion_6-2" data-name="Exclusion 6" d="M315.5,637a314.945,314.945,0,0,1-63.584-6.471A312.2,312.2,0,0,1,139.1,582.6,318.713,318.713,0,0,1,6.41,382.689a324.6,324.6,0,0,1,0-128.378A318.842,318.842,0,0,1,139.1,54.395a312.823,312.823,0,0,1,352.8,0A318.713,318.713,0,0,1,624.59,254.311a324.6,324.6,0,0,1,0,128.378A318.841,318.841,0,0,1,491.9,582.6,312.034,312.034,0,0,1,315.5,637Zm.6-394.7c-41.98,0-76.133,34.456-76.133,76.809s34.153,76.809,76.133,76.809,76.132-34.456,76.132-76.809S358.081,242.3,316.1,242.3Z" transform="translate(0 0)"/>
    </g>
  </g>
</svg>
