<svg id="Mask" xmlns="http://www.w3.org/2000/svg" width="603" height="603" viewBox="0 0 603 603">
  <path id="Exclusion_10" data-name="Exclusion 10" d="M332.5,634a303.733,303.733,0,0,1-60.763-6.125,299.85,299.85,0,0,1-107.809-45.366A302.377,302.377,0,0,1,54.694,449.857a299.976,299.976,0,0,1-17.568-56.595,304.441,304.441,0,0,1,0-121.526A299.85,299.85,0,0,1,82.492,163.928,302.381,302.381,0,0,1,215.143,54.693a299.988,299.988,0,0,1,56.595-17.568,304.441,304.441,0,0,1,121.526,0A299.849,299.849,0,0,1,501.072,82.491,302.382,302.382,0,0,1,610.307,215.142a299.988,299.988,0,0,1,17.568,56.595,304.442,304.442,0,0,1,0,121.526,299.849,299.849,0,0,1-45.366,107.809A302.38,302.38,0,0,1,449.858,610.306a299.976,299.976,0,0,1-56.595,17.568A303.731,303.731,0,0,1,332.5,634Zm.633-368.336A67.469,67.469,0,1,0,400.6,333.133,67.545,67.545,0,0,0,333.133,265.664Z" transform="translate(-31 -31)"/>
</svg>
