<svg id="Record" xmlns="http://www.w3.org/2000/svg" width="655" height="655" viewBox="0 0 655 655">
  <path id="Exclusion_6" data-name="Exclusion 6" d="M-90.5,655a329.921,329.921,0,0,1-66-6.654,325.864,325.864,0,0,1-61.475-19.083,327.538,327.538,0,0,1-55.631-30.2,329.854,329.854,0,0,1-48.469-39.991,329.849,329.849,0,0,1-39.991-48.469,327.531,327.531,0,0,1-30.2-55.631A325.849,325.849,0,0,1-411.347,393.5a329.911,329.911,0,0,1-6.654-66,329.911,329.911,0,0,1,6.654-66,325.849,325.849,0,0,1,19.083-61.475,327.532,327.532,0,0,1,30.2-55.631,329.857,329.857,0,0,1,39.991-48.469,329.859,329.859,0,0,1,48.469-39.991,327.531,327.531,0,0,1,55.631-30.2A325.849,325.849,0,0,1-156.5,6.654,329.912,329.912,0,0,1-90.5,0a329.913,329.913,0,0,1,66,6.654A325.842,325.842,0,0,1,36.978,25.737a327.531,327.531,0,0,1,55.631,30.2,329.854,329.854,0,0,1,48.469,39.991,329.86,329.86,0,0,1,39.991,48.469,327.54,327.54,0,0,1,30.2,55.631A325.857,325.857,0,0,1,230.346,261.5a329.921,329.921,0,0,1,6.654,66,329.921,329.921,0,0,1-6.654,66,325.859,325.859,0,0,1-19.083,61.475,327.536,327.536,0,0,1-30.2,55.631,329.841,329.841,0,0,1-39.991,48.469,329.847,329.847,0,0,1-48.469,39.991,327.53,327.53,0,0,1-55.631,30.2A325.858,325.858,0,0,1-24.5,648.347,329.922,329.922,0,0,1-90.5,655Zm.625-385.715a58.905,58.905,0,0,0-58.838,58.838,58.905,58.905,0,0,0,58.838,58.838,58.9,58.9,0,0,0,58.838-58.838A58.9,58.9,0,0,0-89.876,269.285Z" transform="translate(418 0)" fill="#111"/>
  <path id="Exclusion_7" data-name="Exclusion 7" d="M125,187.439a62.244,62.244,0,1,1,24.3-4.907A62.048,62.048,0,0,1,125,187.439Zm.238-94.582a32.381,32.381,0,1,0,32.381,32.381A32.418,32.418,0,0,0,125.238,92.858Z" transform="translate(203.001 204)" fill="#343333"/>
</svg>
